<?xml version="1.0" encoding="UTF-8"?><svg id="Layer_1" xmlns="http://www.w3.org/2000/svg" viewBox="0 0 180 180"><defs><style>.cls-1{fill:#eac268;}.cls-2{fill:#fff;}.cls-3{stroke:#eac268;stroke-linecap:round;}.cls-3,.cls-4{fill:none;stroke-miterlimit:10;stroke-width:8px;}.cls-5{opacity:.2;}.cls-4{stroke:#fff;}</style></defs><g><line class="cls-3" x1="113.51" y1="42.34" x2="113.51" y2="26.13"/><line class="cls-3" x1="150.29" y1="79.12" x2="166.5" y2="79.12"/><line class="cls-3" x1="139.52" y1="53.11" x2="148.55" y2="44.08"/><g><line class="cls-3" x1="87.51" y1="53.11" x2="78.48" y2="44.08"/><line class="cls-3" x1="139.52" y1="105.12" x2="148.55" y2="114.15"/></g><path class="cls-1" d="M114.75,57.52c-11.93,0-21.6,9.67-21.6,21.6,0,.15,.02,.3,.02,.45,.94,1.13,1.81,2.31,2.6,3.55,1.88-.45,3.84-.69,5.86-.69,10.57,0,19.63,6.48,23.44,15.68,6.72-3.66,11.28-10.79,11.28-18.98,0-11.93-9.67-21.6-21.6-21.6Z"/></g><g class="cls-5"><path class="cls-2" d="M102.2,82.95c-2.02,0-3.98,.25-5.86,.69-6.39-9.94-17.52-16.54-30.21-16.54-16.52,0-30.4,11.17-34.59,26.35-.91-.12-1.83-.19-2.77-.19-11.15,0-20.2,9.04-20.2,20.2s9.04,20.2,20.2,20.2H102.2c14,0,25.36-11.35,25.36-25.36s-11.35-25.36-25.36-25.36Z"/></g><path class="cls-4" d="M102.2,82.95c-2.02,0-3.98,.25-5.86,.69-6.39-9.94-17.52-16.54-30.21-16.54-16.52,0-30.4,11.17-34.59,26.35-.91-.12-1.83-.19-2.77-.19-11.15,0-20.2,9.04-20.2,20.2s9.04,20.2,20.2,20.2H102.2c14,0,25.36-11.35,25.36-25.36s-11.35-25.36-25.36-25.36Z"/></svg>